<svg width="1280" height="640" viewBox="0 0 1280 640" fill="none" xmlns="http://www.w3.org/2000/svg">
  <defs>
    <linearGradient id="bg" x1="104" y1="56" x2="1164" y2="596" gradientUnits="userSpaceOnUse">
      <stop stop-color="#F5F7FB"/>
      <stop offset="0.48" stop-color="#E9EEF9"/>
      <stop offset="1" stop-color="#DDE6F7"/>
    </linearGradient>
    <linearGradient id="card" x1="748" y1="114" x2="1103" y2="482" gradientUnits="userSpaceOnUse">
      <stop stop-color="#FFFFFF"/>
      <stop offset="1" stop-color="#F4F8FF"/>
    </linearGradient>
    <linearGradient id="accent" x1="0" y1="0" x2="1" y2="1">
      <stop stop-color="#5AA3FF"/>
      <stop offset="1" stop-color="#2C6DFF"/>
    </linearGradient>
    <filter id="shadow" x="666" y="66" width="485" height="489" filterUnits="userSpaceOnUse" color-interpolation-filters="sRGB">
      <feFlood flood-opacity="0" result="BackgroundImageFix"/>
      <feColorMatrix in="SourceAlpha" type="matrix" values="0 0 0 0 0 0 0 0 0 0 0 0 0 0 0 0 0 0 127 0" result="hardAlpha"/>
      <feOffset dy="16"/>
      <feGaussianBlur stdDeviation="18"/>
      <feComposite in2="hardAlpha" operator="out"/>
      <feColorMatrix type="matrix" values="0 0 0 0 0.258824 0 0 0 0 0.384314 0 0 0 0 0.647059 0 0 0 0.18 0"/>
      <feBlend mode="normal" in2="BackgroundImageFix" result="effect1_dropShadow_1_2"/>
      <feBlend mode="normal" in="SourceGraphic" in2="effect1_dropShadow_1_2" result="shape"/>
    </filter>
  </defs>

  <rect width="1280" height="640" fill="url(#bg)"/>
  <circle cx="1098" cy="103" r="170" fill="#D9E7FF" fill-opacity="0.68"/>
  <circle cx="79" cy="560" r="166" fill="#E3EDFF"/>
  <path d="M0 470C132 420 247 409 345 437C462 469 562 549 718 555C899 561 1048 476 1280 378V640H0V470Z" fill="#EDF3FF"/>

  <rect x="96" y="98" width="106" height="106" rx="28" fill="url(#accent)"/>
  <path d="M137 143H161.5C182.763 143 200 160.237 200 181.5V181.5C200 202.763 182.763 220 161.5 220H137V143Z" fill="white"/>
  <path d="M128 129H155C178.196 129 197 147.804 197 171V171C197 194.196 178.196 213 155 213H128V129Z" fill="white" fill-opacity="0.22"/>

  <text x="96" y="275" fill="#10203A" font-family="Segoe UI, Arial, sans-serif" font-size="74" font-weight="700">DezirClip</text>
  <text x="96" y="332" fill="#42536D" font-family="Segoe UI, Arial, sans-serif" font-size="28" font-weight="500">Cross-platform clipboard manager for fast daily workflows</text>

  <g fill="#173053" font-family="Segoe UI, Arial, sans-serif" font-size="24" font-weight="600">
    <text x="96" y="418">Clipboard history</text>
    <text x="96" y="468">WebDAV sync</text>
    <text x="96" y="518">Rich text and image capture</text>
    <text x="96" y="568">Privacy-first local storage</text>
  </g>

  <g fill="#2C6DFF">
    <circle cx="74" cy="410" r="8"/>
    <circle cx="74" cy="460" r="8"/>
    <circle cx="74" cy="510" r="8"/>
    <circle cx="74" cy="560" r="8"/>
  </g>

  <text x="96" y="604" fill="#56708F" font-family="Segoe UI, Arial, sans-serif" font-size="22" font-weight="600">github.com/qiyuanhuakai/dezirclip</text>

  <g filter="url(#shadow)">
    <rect x="702" y="102" width="413" height="417" rx="30" fill="url(#card)"/>
    <rect x="702" y="102" width="413" height="417" rx="30" stroke="#D5E2FA" stroke-width="2"/>

    <rect x="734" y="134" width="349" height="46" rx="14" fill="#EAF2FF"/>
    <circle cx="762" cy="157" r="7" fill="#8CB8FF"/>
    <circle cx="788" cy="157" r="7" fill="#A8CBFF"/>
    <circle cx="814" cy="157" r="7" fill="#C0D8FF"/>
    <rect x="845" y="145" width="178" height="24" rx="12" fill="#D6E6FF"/>

    <rect x="734" y="206" width="116" height="282" rx="18" fill="#0F2039"/>
    <rect x="754" y="228" width="76" height="12" rx="6" fill="#426285"/>
    <rect x="754" y="256" width="58" height="58" rx="14" fill="#1E3B63"/>
    <rect x="754" y="330" width="76" height="10" rx="5" fill="#3B587D"/>
    <rect x="754" y="352" width="60" height="10" rx="5" fill="#314D72"/>
    <rect x="754" y="395" width="76" height="58" rx="14" fill="#1E3B63"/>

    <rect x="872" y="206" width="211" height="92" rx="20" fill="#FFFFFF"/>
    <rect x="892" y="226" width="76" height="14" rx="7" fill="#B3CFFF"/>
    <rect x="892" y="250" width="159" height="10" rx="5" fill="#D6E6FF"/>
    <rect x="892" y="270" width="132" height="10" rx="5" fill="#D6E6FF"/>

    <rect x="872" y="316" width="211" height="172" rx="20" fill="#FFFFFF"/>
    <rect x="892" y="338" width="130" height="14" rx="7" fill="#9EC4FF"/>
    <rect x="892" y="366" width="163" height="10" rx="5" fill="#D6E6FF"/>
    <rect x="892" y="388" width="146" height="10" rx="5" fill="#D6E6FF"/>
    <rect x="892" y="424" width="74" height="26" rx="13" fill="#E7F0FF"/>
    <rect x="974" y="424" width="61" height="26" rx="13" fill="#E7F0FF"/>
    <rect x="892" y="458" width="113" height="10" rx="5" fill="#D6E6FF"/>
  </g>
</svg>
